<svg class="cat" fill="none" viewBox="0 0 189 129"  xmlns="http://www.w3.org/2000/svg">
<path class="cat-body" d="m139.18 128.81c-5.182 0-88.943 9e-3 -88.943 9e-3 2.3609-4.565 9.4723-11.158 8.4526-16.317-0.6918-3.501-17.192-16-20.897-38.691-3.7052-22.691 7.6813-73.809 15.705-73.809 4.0001 0 14.08 19.839 19.312 28.978 13.863-5.2057 34.687-4.4781 44.423-0.4781 5.265-9.498 15.228-28.5 18.764-28.5 4 0 13.505 55.286 12 73.809-1.505 18.523-18.255 34.189-18.255 38.691 0 4.5 3.755 10.5 9.437 16.308h1e-3zm-67.928-64.853c7.4614 5.615-6.1727 13.217-12.177 8.2681-8.342-6.8824 5.8162-13.05 12.177-8.2681zm58.671 9.1073c-5.752 4.1078-19.505-0.9273-12.689-7.8069 6.457-6.5128 21.021 1.8666 12.689 7.8069zm-30.747 8.3284c11.172-8.4898-21.422-9.566-9.6078 0.1568 5.5629 4.5732-1.0888 6.8496-3.0904 8.66 3.0904 4.2932 7.3732-1.9907 8.5203-4.7068 0 0 5.495 9.3208 8 4.7068-1.18-1.3869-7.0573-6.3642-3.8221-8.8168z" clip-rule="evenodd" fill-rule="evenodd"/>
<path class="cat-whisker" d="m33.221 71.156-14.721-4.6561-15.344-1.7214"/>
<path class="cat-whisker" d="M33.5 79.5H17.5L2 81"/>
<path class="cat-whisker" d="m33.5 86h-5l-6 4"/>
<path class="cat-whisker" d="M155.779 71.1561L171 67.5L185.844 64.7786"/>
<path class="cat-whisker" d="M155.5 79.5L171.5 78.9999L187 81"/>
<path class="cat-whisker" d="m155.5 86 6 1.5 5 2.5"/>
</svg>
