<svg fill="#fff" class="cat die-number" viewBox="-3 0 189 129">
<path fill-rule="evenodd" d="m139.18 128.81-88.943.009c2.36-4.565 9.472-11.158 8.453-16.317-.692-3.501-17.192-16-20.897-38.691C34.087 51.12 45.473.002 53.498.002c4 0 14.08 19.839 19.312 28.978 13.863-5.206 34.687-4.478 44.423-.478 5.265-9.498 15.228-28.5 18.764-28.5 4 0 13.505 55.286 12 73.809-1.505 18.523-18.255 34.189-18.255 38.69 0 4.5 3.755 10.5 9.437 16.309zM71.252 63.957c7.461 5.615-6.173 13.217-12.177 8.268-8.342-6.882 5.816-13.05 12.177-8.268zm58.671 9.107c-5.752 4.108-19.505-.927-12.689-7.807 6.457-6.512 21.021 1.867 12.689 7.807zm-30.747 8.329c11.172-8.49-21.422-9.566-9.608.157 5.563 4.573-1.089 6.85-3.09 8.66 3.09 4.293 7.373-1.991 8.52-4.707 0 0 5.495 9.32 8 4.707-1.18-1.387-7.057-6.365-3.822-8.817z" class="cat-body" clip-rule="evenodd"/>
<path d="M33.221 71.156 18.5 66.5 3.156 64.779M33.5 79.5h-16L2 81M33.5 86h-5l-6 4M155.779 71.156 171 67.5l14.844-2.721M155.5 79.5l16-.5 15.5 2M155.5 86l6 1.5 5 2.5" class="cat-whisker"/>
</svg>