<svg class="charm charm-3 die-number" width="200" height="200" viewBox="0 0 200 200" fill="none" xmlns="http://www.w3.org/2000/svg">
<path fill-rule="evenodd" clip-rule="evenodd" d="M146.5 93L157.372 119.522L186 121.647L164.092 140.164L170.912 168L146.5 152.923L122.088 168L128.909 140.164L107 121.647L135.628 119.522L146.5 93Z" fill="black"/>
<path fill-rule="evenodd" clip-rule="evenodd" d="M53.5 93L64.3721 119.522L93 121.647L71.0918 140.164L77.9123 168L53.5 152.923L29.0877 168L35.9089 140.164L14 121.647L42.6279 119.522L53.5 93Z" fill="black"/>
<path fill-rule="evenodd" clip-rule="evenodd" d="M99.5 32L110.372 58.5219L139 60.6474L117.092 79.1644L123.912 107L99.5 91.9229L75.0877 107L81.9089 79.1644L60 60.6474L88.6279 58.5219L99.5 32Z" fill="black"/>
</svg>
