<svg class="charm charm-3 die-number" width="200" height="200" viewBox="0 0 200 200" fill="none">
<path fill-rule="evenodd" clip-rule="evenodd" d="M148.5 102L158.822 127.107L186 129.12L165.201 146.649L171.676 173L148.5 158.727L125.324 173L131.8 146.649L111 129.12L138.178 127.107L148.5 102Z"/>
<path fill-rule="evenodd" clip-rule="evenodd" d="M51.5 102L61.8217 127.107L89 129.12L68.2011 146.649L74.6763 173L51.5 158.727L28.3237 173L34.7996 146.649L14 129.12L41.1783 127.107L51.5 102Z"/>
<path fill-rule="evenodd" clip-rule="evenodd" d="M101.5 25L111.822 50.1074L139 52.1195L118.201 69.649L124.676 96L101.5 81.727L78.3237 96L84.7996 69.649L64 52.1195L91.1783 50.1074L101.5 25Z"/>
</svg>
