<svg class="charm charm-3 die-number" width="200" height="200" viewBox="0 0 200 200" fill="none" xmlns="http://www.w3.org/2000/svg">
<path fill-rule="evenodd" clip-rule="evenodd" d="M146.5 38L157.372 64.5219L186 66.6474L164.092 85.1644L170.912 113L146.5 97.9229L122.088 113L128.909 85.1644L107 66.6474L135.628 64.5219L146.5 38Z" fill="black"/>
<path fill-rule="evenodd" clip-rule="evenodd" d="M53.5 38L64.3721 64.5219L93 66.6474L71.0918 85.1644L77.9123 113L53.5 97.9229L29.0877 113L35.9089 85.1644L14 66.6474L42.6279 64.5219L53.5 38Z" fill="black"/>
<path fill-rule="evenodd" clip-rule="evenodd" d="M99.5 97L110.372 123.522L139 125.647L117.092 144.164L123.912 172L99.5 156.923L75.0877 172L81.9089 144.164L60 125.647L88.6279 123.522L99.5 97Z" fill="black"/>
</svg>
