<svg width="80" height="78" viewBox="0 0 80 78" fill="none" xmlns="http://www.w3.org/2000/svg">
<path d="M40.2453 76L1 49.5364V32.9353C1 31.6642 1.60409 30.4688 2.6274 29.7149L40.2453 2L77.3919 29.7142C78.4039 30.4692 79 31.6576 79 32.9202V49.5364L40.2453 76Z" fill="currentColor"/>
<path d="M40.2453 76L1 49.5364M40.2453 76L79 49.5364M40.2453 76V61.7881M1 49.5364V32.9353C1 31.6642 1.60409 30.4688 2.6274 29.7149L40.2453 2M1 49.5364H14.7358M40.2453 2L77.3919 29.7142C78.4039 30.4692 79 31.6576 79 32.9202V49.5364M40.2453 2L14.7358 49.5364M40.2453 2L65.2642 49.5364M79 49.5364H65.2642M14.7358 49.5364L40.2453 61.7881M65.2642 49.5364L40.2453 61.7881" stroke="black" stroke-width="2"/>
</svg>
