<svg class="die-svg" viewBox="-8 0 96 86"><path d="M1 55.399V30.82l14.746-19.76a4 4 0 0 1 1.907-1.391L40 2l22.864 7.66a4 4 0 0 1 1.978 1.458L79 30.82v24.62a4 4 0 0 1-.783 2.378L64.838 75.917a4 4 0 0 1-1.946 1.415L41.286 84.57a4 4 0 0 1-2.57-.01l-22.231-7.629L1.827 57.837A4 4 0 0 1 1 55.4z" class="face"/><path d="M1 30.819v24.579a4 4 0 0 0 .827 2.436L16.485 76.93M1 30.819l14.746-19.76a4 4 0 0 1 1.907-1.391L40 1.999M1 30.82l13.191 4.034M40 1.999l22.863 7.66a4 4 0 0 1 1.978 1.458L79 30.819M40 1.999v13.258m39 15.562v24.62a4 4 0 0 1-.783 2.377l-13.378 18.1a4 4 0 0 1-1.946 1.415l-21.606 7.238a4 4 0 0 1-2.57-.01l-22.231-7.63M79 30.82l-13.765 4.035M16.485 76.93l7.456-12.104h31.544m-31.544 0-9.75-29.972m41.294 29.972 8.602 12.68m-8.602-12.68 9.75-29.972L40 15.257 14.19 34.854" class="edges"/></svg>