<svg width="80" height="94" viewBox="-8 0 96 94" fill="none" xmlns="http://www.w3.org/2000/svg">
<path d="M1 69.8771V23.6201L40 2L79 23.6201V69.8771L40 92L1 69.8771Z" fill="currentColor"/>
<path d="M1 69.8771V23.6201M1 69.8771L40 92M1 69.8771L13.1558 62.838M1 23.6201L40 2M1 23.6201L40 14.067M1 23.6201L13.1558 62.838M40 2L79 23.6201M40 2V14.067M79 23.6201V69.8771M79 23.6201L40 14.067M79 23.6201L67.3506 62.838M79 69.8771L40 92M79 69.8771L67.3506 62.838M40 92L67.3506 62.838M40 92L13.1558 62.838M40 14.067L13.1558 62.838M40 14.067L67.3506 62.838M67.3506 62.838H13.1558" stroke="black" stroke-width="3"/>
</svg>
