<svg width="80" height="92" viewBox="-8 0 96 92" fill="none" xmlns="http://www.w3.org/2000/svg">
<path d="M3.02545 22.9874L40 2L76.9746 22.9874C78.2265 23.698 79 25.0265 79 26.466V67.9594L42.0346 89.798C40.7795 90.5395 39.2205 90.5395 37.9654 89.798L1 67.9594V26.466C1 25.0265 1.77352 23.698 3.02545 22.9874Z" fill="currentColor"/>
<path d="M40 2L3.02545 22.9874C1.77352 23.698 1 25.0265 1 26.466V67.9594M40 2L76.9746 22.9874C78.2265 23.698 79 25.0265 79 26.466V67.9594M40 2L1 67.9594M40 2L79 67.9594M79 67.9594L42.0346 89.798C40.7795 90.5395 39.2205 90.5395 37.9654 89.798L1 67.9594M79 67.9594H1" stroke="black" stroke-width="3"/>
</svg>
